<svg xmlns="http://www.w3.org/2000/svg" width="244.778" height="297.77" viewBox="0 0 244.778 297.77">
  <g id="keys" transform="translate(-45.558)">
    <g id="Group_39" data-name="Group 39" transform="translate(50.161 65.422)">
      <path id="Path_34" data-name="Path 34" d="M190.79,195.458a29.964,29.964,0,0,1,2.041-59.685,53.365,53.365,0,0,1,23.916-18.338,53.229,53.229,0,0,0-66.766,77.719L56.554,288.581A10.521,10.521,0,1,0,71.433,303.46l12.376-12.376,9.449,9.449a10.521,10.521,0,0,0,14.879-14.879L98.688,276.2,110,264.889l9.449,9.449a10.521,10.521,0,0,0,14.879-14.879l-9.449-9.449,39.976-39.975a53.3,53.3,0,0,0,48.545,5.343A53.434,53.434,0,0,1,190.79,195.458Z" transform="translate(-53.472 -112.49)" fill="#6468ee"/>
      <g id="Group_37" data-name="Group 37" transform="translate(120.727 0.297)">
        <path id="Path_35" data-name="Path 35" d="M263.544,142.479a29.853,29.853,0,0,1,17.185-6.492,53.365,53.365,0,0,1,23.916-18.338A53.129,53.129,0,0,0,287.772,113a65.285,65.285,0,0,0-24.228,29.478Z" transform="translate(-262.097 -113.001)" fill="#6468ee"/>
        <path id="Path_36" data-name="Path 36" d="M300.26,269.642a53.429,53.429,0,0,1-22.614-19.919,29.824,29.824,0,0,1-16.59-7.54,65.2,65.2,0,0,0,22.326,30.945A53.333,53.333,0,0,0,300.26,269.642Z" transform="translate(-261.056 -167.053)" fill="#6468ee"/>
      </g>
      <path id="Path_37" data-name="Path 37" d="M328.744,114.925a53.22,53.22,0,0,0-15.193,104.224V324.868L328.774,341.2l16.49-16.336V310.445L331.22,299.553l14.045-10.892L331.22,277.768l14.045-10.892L331.22,255.983l14.045-10.892V218.735a53.22,53.22,0,0,0-16.52-103.81Zm.319,53.108A14.931,14.931,0,1,1,343.994,153.1,14.931,14.931,0,0,1,329.063,168.033Z" transform="translate(-146.385 -113.509)" fill="#443ac7"/>
      <g id="Group_38" data-name="Group 38" transform="translate(176.203 1.416)">
        <path id="Path_38" data-name="Path 38" d="M362.6,114.925q-2.649,0-5.234.256a53.222,53.222,0,0,1,13.185,102.894,2.9,2.9,0,0,0-1.9,2.722v24.294l-11.082,8.595a2.908,2.908,0,0,0,0,4.6l11.082,8.595-11.082,8.595a2.908,2.908,0,0,0,0,4.6l11.082,8.595-11.082,8.595a2.908,2.908,0,0,0,0,4.6l11.082,8.595v14.423L357.6,335.812l5.025,5.392,16.49-16.336V310.446l-14.045-10.892,14.045-10.892-14.045-10.892,14.045-10.892-14.045-10.892,14.045-10.892V218.735a53.221,53.221,0,0,0-16.52-103.81Z" transform="translate(-356.444 -114.925)" fill="#443ac7"/>
      </g>
    </g>
    <g id="Group_40" data-name="Group 40" transform="translate(45.558 0)">
      <path id="Path_39" data-name="Path 39" d="M213.051,174.271v47.522a4.371,4.371,0,0,0,8.741,0V171.111a4.37,4.37,0,0,0-3.125-4.189,49.336,49.336,0,0,1-25.071-17.4A48.5,48.5,0,0,1,183.7,120a48.986,48.986,0,0,1,63.612-46.716A51.407,51.407,0,0,1,241.2,87.447a19.388,19.388,0,1,0,6.888,5.463,60.144,60.144,0,0,0,7.351-16.242,49.02,49.02,0,0,1,15.065,12.3,4.371,4.371,0,0,0,6.757-5.547A57.712,57.712,0,0,0,257.245,67.8a60.205,60.205,0,1,0-113.993,18.5,57.876,57.876,0,0,0-2.169,61.155l-40.1,40.1a4.371,4.371,0,0,0,6.181,6.182l42.553-42.553a4.37,4.37,0,0,0,.547-5.513A48.954,48.954,0,0,1,202.312,70.95,58.142,58.142,0,0,0,187.282,84.4a34.387,34.387,0,0,0-2.352,68.025c.547.8,1.108,1.6,1.7,2.376a58,58,0,0,0,12.417,12.067,48.952,48.952,0,0,1-35.091-7.5,4.371,4.371,0,0,0-5.513.547l-40.055,40.055a4.371,4.371,0,0,0,0,6.181l9.468,9.468a6.171,6.171,0,0,1-8.728,8.727l-9.468-9.468a4.372,4.372,0,0,0-6.181,0L92.138,226.212a4.4,4.4,0,0,0,0,6.182l9.467,9.466a6.171,6.171,0,1,1-8.727,8.728L83.41,241.12a4.372,4.372,0,0,0-6.181,0l-12.4,12.4a6.171,6.171,0,1,1-8.728-8.728l38.7-38.7a4.371,4.371,0,0,0-6.181-6.182l-38.7,38.7A14.913,14.913,0,0,0,71.009,259.7l9.311-9.311L86.7,256.77a14.913,14.913,0,0,0,21.09-21.091L101.41,229.3l5.157-5.157,6.377,6.376a14.913,14.913,0,1,0,21.091-21.089l-6.377-6.378,34.515-34.515a57.784,57.784,0,0,0,47.844,4.521c1,.43,2.011.839,3.035,1.21Zm19.913-79.928a10.555,10.555,0,0,1,2.754.376,51.4,51.4,0,0,1-13.328,10.557c0-.115-.017-.227-.017-.343a10.6,10.6,0,0,1,10.591-10.59Zm10.591,10.591a10.583,10.583,0,0,1-17.3,8.189,60.129,60.129,0,0,0,16.211-12.83A10.518,10.518,0,0,1,243.555,104.934ZM150.25,77.788c-.273.273-.532.555-.8.832a51.47,51.47,0,1,1,99.537-18.411c0,1.477-.07,2.942-.194,4.4a57.82,57.82,0,0,0-35.108.908A57.9,57.9,0,0,0,150.25,77.788Zm30.338,17.36a57.223,57.223,0,0,0-4.189,12,51.207,51.207,0,0,1-6.3-3.378,25.571,25.571,0,0,1,10.49-8.622ZM172.9,136.724a25.67,25.67,0,0,1-6.565-25.014,59.821,59.821,0,0,0,8.755,4.378c-.087,1.293-.136,2.6-.136,3.913a57.436,57.436,0,0,0,4.033,21.241A25.629,25.629,0,0,1,172.9,136.724Z" transform="translate(-45.558 0)"/>
      <path id="Path_40" data-name="Path 40" d="M407.207,169.582a4.371,4.371,0,0,0-8.189,3.06,49.007,49.007,0,0,1-30.674,63.668,4.371,4.371,0,0,0-3.015,4.155v24.268l-12.381,9.6a4.4,4.4,0,0,0,0,6.907l9.619,7.46-9.62,7.461a4.4,4.4,0,0,0,0,6.907l9.619,7.46-9.619,7.46a4.4,4.4,0,0,0,0,6.907l12.381,9.6v10.488L353.3,356.9l-11.008-11.812V309.042a4.371,4.371,0,1,0-8.741,0v37.767a4.374,4.374,0,0,0,1.173,2.98l15.254,16.369a4.4,4.4,0,0,0,6.274.125l16.523-16.369a4.37,4.37,0,0,0,1.295-3.105V332.358a4.371,4.371,0,0,0-1.692-3.454l-9.619-7.46,9.619-7.46a4.4,4.4,0,0,0,0-6.907l-9.619-7.46,9.619-7.461a4.4,4.4,0,0,0,0-6.907l-9.619-7.46,9.619-7.46a4.371,4.371,0,0,0,1.692-3.454v-23.33a57.753,57.753,0,0,0,33.136-73.962Z" transform="translate(-166.06 -69.767)"/>
    </g>
  </g>
</svg>
